<svg xmlns="http://www.w3.org/2000/svg" width="128" height="128" fill="none"><path fill="#ACCCF8" d="M29.558 35.587v25.92a41.7 41.7 0 0 0 26.57 38.928l3.638 1.419a10.36 10.36 0 0 0 7.502 0l3.621-1.402a41.697 41.697 0 0 0 26.553-38.944V35.586a5.21 5.21 0 0 0-3.021-4.751A75.156 75.156 0 0 0 63.5 24.467a75.155 75.155 0 0 0-30.92 6.35 5.21 5.21 0 0 0-3.022 4.77Z"/><path fill="#fff" d="M63.5 24.467a75.155 75.155 0 0 0-30.92 6.35 5.21 5.21 0 0 0-3.022 4.77v25.92a41.7 41.7 0 0 0 26.57 38.928l3.638 1.419c1.193.454 2.458.684 3.734.679V24.467Z"/><path stroke="#1772EB" stroke-linecap="round" stroke-linejoin="round" stroke-width="3.54" d="M29.558 35.587v25.92a41.7 41.7 0 0 0 26.57 38.928l3.638 1.419a10.36 10.36 0 0 0 7.502 0l3.621-1.402a41.697 41.697 0 0 0 26.553-38.944V35.586a5.21 5.21 0 0 0-3.021-4.751A75.156 75.156 0 0 0 63.5 24.467a75.155 75.155 0 0 0-30.92 6.35 5.21 5.21 0 0 0-3.022 4.77Z"/><path stroke="#1772EB" stroke-linecap="round" stroke-linejoin="round" stroke-width="3.54" d="M70.288 48.226h-7.283a6.293 6.293 0 0 0-2.814 11.92l6.618 3.31a6.292 6.292 0 0 1-2.813 11.924h-7.284M63.5 48.233v-5.091M63.5 80.478v-5.091"/></svg>