<svg xmlns="http://www.w3.org/2000/svg" width="128" height="128" fill="none"><path fill="#ACCCF8" d="M64 27.479a36.522 36.522 0 1 0 0 73.043 36.522 36.522 0 0 0 0-73.044Zm0 53.912a17.39 17.39 0 1 1 0-34.781 17.39 17.39 0 0 1 0 34.781Z"/><path fill="#fff" d="M33.61 56.291a36.521 36.521 0 0 1 66.372 13.99 36.521 36.521 0 1 0-71.962-.021 36.341 36.341 0 0 1 5.59-13.969Z"/><path fill="#fff" d="M69.218 47.405V27.478A3.478 3.478 0 0 0 65.74 24h-3.478a3.478 3.478 0 0 0-3.479 3.478v19.927"/><path stroke="#1772EB" stroke-linecap="round" stroke-linejoin="round" stroke-width="3.54" d="M69.218 47.405V27.478A3.478 3.478 0 0 0 65.74 24h-3.478a3.478 3.478 0 0 0-3.479 3.478v19.927"/><path fill="#fff" d="M58.783 80.595v19.927A3.477 3.477 0 0 0 62.261 104h3.479a3.48 3.48 0 0 0 3.478-3.478V80.595"/><path stroke="#1772EB" stroke-linecap="round" stroke-linejoin="round" stroke-width="3.54" d="M58.783 80.595v19.927A3.477 3.477 0 0 0 62.261 104h3.479a3.48 3.48 0 0 0 3.478-3.478V80.595"/><path fill="#fff" d="M47.405 58.782H27.478A3.478 3.478 0 0 0 24 62.261v3.478a3.478 3.478 0 0 0 3.478 3.478h19.927"/><path stroke="#1772EB" stroke-linecap="round" stroke-linejoin="round" stroke-width="3.54" d="M47.405 58.782H27.478A3.478 3.478 0 0 0 24 62.261v3.478a3.478 3.478 0 0 0 3.478 3.478h19.927"/><path fill="#fff" d="M80.595 69.217h19.927A3.477 3.477 0 0 0 104 65.739V62.26a3.48 3.48 0 0 0-3.478-3.478H80.595"/><path stroke="#1772EB" stroke-linecap="round" stroke-linejoin="round" stroke-width="3.54" d="M80.595 69.217h19.927A3.477 3.477 0 0 0 104 65.739V62.26a3.48 3.48 0 0 0-3.478-3.478H80.595"/><path stroke="#1772EB" stroke-linecap="round" stroke-linejoin="round" stroke-width="3.54" d="M46.61 64a17.391 17.391 0 1 0 34.782 0 17.391 17.391 0 0 0-34.783 0ZM69.217 27.85a36.546 36.546 0 0 1 30.932 30.933M27.844 58.783A36.549 36.549 0 0 1 58.8 27.851M58.783 100.154a36.543 36.543 0 0 1-30.94-30.936M100.149 69.218a36.522 36.522 0 0 1-30.932 30.936"/></svg>